# xmcd
#
# Track frame offsets:
# 180
# 13021
# 23215
# 35136
# 45632
# 58399
# 69634
# 82166
# 93503
# 104464
# 116592
# 126827
# 136880
# 144677
# 155034
# 167156
# 178018
# 190553
# 198990
# 208792
# 218220
# 230144
#
# Disc length: 3220 seconds
#
# Revision: 0
# Processed by: cddbd v1.4PL0 Copyright (c) Steve Scherf et al.
# Submitted via: Audion 2.6.0 (http://www.panic.com/audion/)
#
DISCID=530c9216
DTITLE=Johnny Cash - Original Golden Hits
DYEAR=1900
DGENRE=
TTITLE0=Folsom Prison Blues
TTITLE1=Hey Porter
TTITLE2=So Doggone Lonesome
TTITLE3=There You Go
TTITLE4=Next in Line
TTITLE5=Cry, Cry, Cry
TTITLE6=I Walk The Line
TTITLE7=Don't Make Me Go
TTITLE8=Train of Love
TTITLE9=Home of the Blues
TTITLE10=Get Rhythm
TTITLE11=Ballad of a Teen-Age Queen
TTITLE12=Come in Stranger
TTITLE13=The Ways of a Woman
TTITLE14=Your're The Nearest Thing to Heaven
TTITLE15=I Just Thought You'd Like to Know
TTITLE16=Give My Love to Rose
TTITLE17=Guess Things Happen That Way
TTITLE18=Just About Time
TTITLE19=Luther's Boogie
TTITLE20=Thanks A Lot
TTITLE21=Big River
EXTD=
EXTT0=
EXTT1=
EXTT2=
EXTT3=
EXTT4=
EXTT5=
EXTT6=
EXTT7=
EXTT8=
EXTT9=
EXTT10=
EXTT11=
EXTT12=
EXTT13=
EXTT14=
EXTT15=
EXTT16=
EXTT17=
EXTT18=
EXTT19=
EXTT20=
EXTT21=
PLAYORDER=
